<svg width="184" height="183" viewBox="0 0 184 183" fill="none" xmlns="http://www.w3.org/2000/svg">
<g filter="url(#filter0_d_10_655)">
<rect x="41" y="44.4839" width="85.863" height="85.863" rx="20" transform="rotate(-12.1401 41 44.4839)" fill="white"/>
</g>
<g filter="url(#filter1_d_10_655)">
<rect x="54.957" y="53.5002" width="62.3636" height="62.3636" rx="20" transform="rotate(-12.1401 54.957 53.5002)" fill="white"/>
</g>
<rect x="69.998" y="64.9641" width="17.1726" height="8.5863" rx="4" transform="rotate(-12.1401 69.998 64.9641)" fill="#545AE8"/>
<rect width="17.1726" height="8.5863" rx="4" transform="matrix(0.977636 -0.210303 -0.210303 -0.977636 96.6875 93.7683)" fill="#545AE8"/>
<rect x="72.2852" y="75.5967" width="17.1726" height="22.8968" rx="4" transform="rotate(-12.1401 72.2852 75.5967)" fill="#545AE8"/>
<rect width="17.1726" height="22.8968" rx="4" transform="matrix(0.977636 -0.210303 -0.210303 -0.977636 94.4004 83.1353)" fill="#F48C06"/>
<defs>
<filter id="filter0_d_10_655" x="0.753906" y="0.181396" width="182.492" height="182.491" filterUnits="userSpaceOnUse" color-interpolation-filters="sRGB">
<feFlood flood-opacity="0" result="BackgroundImageFix"/>
<feColorMatrix in="SourceAlpha" type="matrix" values="0 0 0 0 0 0 0 0 0 0 0 0 0 0 0 0 0 0 127 0" result="hardAlpha"/>
<feOffset dy="14"/>
<feGaussianBlur stdDeviation="22"/>
<feColorMatrix type="matrix" values="0 0 0 0 0.337255 0 0 0 0 0.356863 0 0 0 0 0.866667 0 0 0 0.1 0"/>
<feBlend mode="normal" in2="BackgroundImageFix" result="effect1_dropShadow_10_655"/>
<feBlend mode="normal" in="SourceGraphic" in2="effect1_dropShadow_10_655" result="shape"/>
</filter>
<filter id="filter1_d_10_655" x="14.7109" y="16.1396" width="154.576" height="154.575" filterUnits="userSpaceOnUse" color-interpolation-filters="sRGB">
<feFlood flood-opacity="0" result="BackgroundImageFix"/>
<feColorMatrix in="SourceAlpha" type="matrix" values="0 0 0 0 0 0 0 0 0 0 0 0 0 0 0 0 0 0 127 0" result="hardAlpha"/>
<feOffset dy="16"/>
<feGaussianBlur stdDeviation="22"/>
<feColorMatrix type="matrix" values="0 0 0 0 0.0509804 0 0 0 0 0.0588235 0 0 0 0 0.109804 0 0 0 0.1 0"/>
<feBlend mode="normal" in2="BackgroundImageFix" result="effect1_dropShadow_10_655"/>
<feBlend mode="normal" in="SourceGraphic" in2="effect1_dropShadow_10_655" result="shape"/>
</filter>
</defs>
</svg>
